<?xml version="1.0" encoding="UTF-8" standalone="no"?>
<svg
   xmlns:dc="http://purl.org/dc/elements/1.1/"
   xmlns:cc="http://creativecommons.org/ns#"
   xmlns:rdf="http://www.w3.org/1999/02/22-rdf-syntax-ns#"
   xmlns:svg="http://www.w3.org/2000/svg"
   xmlns="http://www.w3.org/2000/svg"
   xmlns:sodipodi="http://sodipodi.sourceforge.net/DTD/sodipodi-0.dtd"
   xmlns:inkscape="http://www.inkscape.org/namespaces/inkscape"
   width="355.81378"
   height="355.82217"
   viewBox="0 0 94.142392 94.144619"
   version="1.1"
   id="svg8"
   sodipodi:docname="RustDublinLogo.svg"
   inkscape:version="1.0 (4035a4fb49, 2020-05-01)">
  <defs
     id="defs2">
    <inkscape:path-effect
       effect="spiro"
       id="path-effect1743"
       is_visible="true"
       lpeversion="1" />
    <inkscape:path-effect
       effect="spiro"
       id="path-effect1529"
       is_visible="true"
       lpeversion="1" />
  </defs>
  <sodipodi:namedview
     fit-margin-bottom="10"
     fit-margin-right="10"
     fit-margin-left="10"
     fit-margin-top="10"
     lock-margins="true"
     id="base"
     pagecolor="#ffffff"
     bordercolor="#666666"
     borderopacity="1.0"
     inkscape:pageopacity="0.0"
     inkscape:pageshadow="2"
     inkscape:zoom="1.979899"
     inkscape:cx="178.24048"
     inkscape:cy="304.69572"
     inkscape:document-units="px"
     inkscape:current-layer="layer2"
     inkscape:document-rotation="0"
     showgrid="false"
     inkscape:window-width="3747"
     inkscape:window-height="2126"
     inkscape:window-x="82"
     inkscape:window-y="-11"
     inkscape:window-maximized="1"
     inkscape:object-nodes="false"
     inkscape:snap-others="false"
     inkscape:snap-nodes="false"
     inkscape:snap-global="false"
     units="px" />
  <metadata
     id="metadata5">
    <rdf:RDF>
      <cc:Work
         rdf:about="">
        <dc:format>image/svg+xml</dc:format>
        <dc:type
           rdf:resource="http://purl.org/dc/dcmitype/StillImage" />
        <dc:title></dc:title>
      </cc:Work>
    </rdf:RDF>
  </metadata>
  <g
     transform="translate(-24.289767,-13.998777)"
     inkscape:groupmode="layer"
     id="layer2"
     inkscape:label="Layer 2"
     style="display:inline">
    <g
       transform="translate(21.518189,-2.6690111)"
       style="display:inline"
       id="g2556">
      <g
         style="opacity:1;fill:#2b1100"
         id="g1965">
        <path
           id="path1967"
           d="M 87.787236,66.19469 C 86.431784,87.151064 68.344472,103.04075 47.388098,101.68529 26.431736,100.32983 10.542061,82.242535 11.897508,61.286173 13.252946,40.329801 31.340243,24.440106 52.296615,25.795547 73.253,27.150987 89.142698,45.238307 87.787236,66.19469 Z m -0.477164,-3.710615 5.680444,4.047161 -6.154473,3.281651 4.776856,5.081519 -6.670428,2.018888 3.698307,5.916756 -6.950791,0.677397 2.480489,6.529531 -6.947277,-0.696846 1.15956,6.888038 -6.681302,-2.0372 -0.203763,6.97914 -6.155592,-3.300936 -1.567166,6.805616 -5.391036,-4.4297 -2.86134,6.35479 -4.42381,-5.39166 -4.04716,5.68043 -3.281652,-6.15445 -5.081518,4.77685 -2.018873,-6.670436 -5.91675,3.698316 -0.677397,-6.95079 -6.529537,2.480469 0.696941,-6.947247 -6.888057,1.159539 2.037224,-6.68127 -6.979162,-0.203913 3.300947,-6.15559 -6.8056123,-1.567156 4.4296983,-5.39104 -6.3547827,-2.861354 5.3916567,-4.423823 -5.680448,-4.047128 6.154473,-3.281685 -4.7768552,-5.081519 6.6704322,-2.018855 -3.698314,-5.916756 6.950789,-0.677397 -2.480481,-6.529531 6.947279,0.696846 -1.159565,-6.888074 6.68129,2.037235 0.203814,-6.979176 6.155598,3.300971 1.567156,-6.805612 5.391019,4.429667 2.861359,-6.354755 4.42381,5.391628 4.047141,-5.680448 3.281662,6.154472 5.081527,-4.776826 2.018874,6.670405 5.916746,-3.698284 0.677405,6.950789 6.529537,-2.480501 -0.69695,6.947279 6.888057,-1.159575 -2.037217,6.681307 6.979145,0.203913 -3.300938,6.155591 6.805621,1.567156 -4.429714,5.391039 6.354802,2.861322 z"
           style="color:#000000;font-style:normal;font-variant:normal;font-weight:normal;font-stretch:normal;font-size:medium;line-height:normal;font-family:sans-serif;font-variant-ligatures:normal;font-variant-position:normal;font-variant-caps:normal;font-variant-numeric:normal;font-variant-alternates:normal;font-variant-east-asian:normal;font-feature-settings:normal;font-variation-settings:normal;text-indent:0;text-align:start;text-decoration:none;text-decoration-line:none;text-decoration-style:solid;text-decoration-color:#000000;letter-spacing:normal;word-spacing:normal;text-transform:none;writing-mode:lr-tb;direction:ltr;text-orientation:mixed;dominant-baseline:auto;baseline-shift:baseline;text-anchor:start;white-space:normal;shape-padding:0;shape-margin:0;inline-size:0;clip-rule:nonzero;display:inline;overflow:visible;visibility:visible;isolation:auto;mix-blend-mode:normal;color-interpolation:sRGB;color-interpolation-filters:linearRGB;solid-color:#000000;solid-opacity:1;vector-effect:none;fill:#2b1100;fill-opacity:1;fill-rule:evenodd;stroke:none;stroke-width:2.55596;stroke-linecap:round;stroke-linejoin:round;stroke-miterlimit:4;stroke-dasharray:none;stroke-dashoffset:0;stroke-opacity:1;color-rendering:auto;image-rendering:auto;shape-rendering:auto;text-rendering:auto;enable-background:accumulate;stop-color:#000000;stop-opacity:1" />
        <path
           id="path1969"
           d="m 52.587891,19.314453 a 1.2781078,1.2781078 0 0 0 -0.996094,0.537109 l -3.078125,4.31836 -3.363281,-4.09961 a 1.2781078,1.2781078 0 0 0 -2.154297,0.285157 L 40.820312,25.1875 36.720703,21.818359 a 1.2781078,1.2781078 0 0 0 -2.056641,0.701172 l -1.191406,5.175781 -4.68164,-2.511718 a 1.2781078,1.2781078 0 0 0 -1.88086,1.089844 l -0.15625,5.30664 -5.080078,-1.550781 a 1.2781078,1.2781078 0 0 0 -1.632812,1.435547 l 0.882812,5.236328 -5.28125,-0.529297 a 1.2781078,1.2781078 0 0 0 -1.322266,1.726563 l 1.886719,4.964843 -5.287109,0.515625 a 1.2781078,1.2781078 0 0 0 -0.9589845,1.949219 l 2.8125005,4.5 -5.0722661,1.535156 A 1.2781078,1.2781078 0 0 0 7.140625,53.460938 l 3.634766,3.865234 -4.681641,2.496094 a 1.2781078,1.2781078 0 0 0 -0.140625,2.167968 l 4.318359,3.078125 -4.099609,3.363282 a 1.2781078,1.2781078 0 0 0 0.2871094,2.154297 l 4.8300776,2.175781 -3.3691401,4.099609 a 1.2781078,1.2781078 0 0 0 0.7011719,2.056641 l 5.1757812,1.193359 -2.509766,4.679688 A 1.2781078,1.2781078 0 0 0 12.375,86.673828 l 5.306641,0.154297 -1.548829,5.080078 a 1.2781078,1.2781078 0 0 0 1.433594,1.632813 l 5.236328,-0.882813 -0.529296,5.283203 A 1.2781078,1.2781078 0 0 0 24,99.263672 l 4.964844,-1.886719 0.515625,5.285157 a 1.2781078,1.2781078 0 0 0 1.949219,0.96094 l 4.501953,-2.81446 1.533203,5.07227 a 1.2781078,1.2781078 0 0 0 2.099609,0.56055 l 3.863281,-3.63282 2.496094,4.68164 a 1.2781078,1.2781078 0 0 0 2.167969,0.14063 l 3.078125,-4.32227 3.365234,4.10157 A 1.2781078,1.2781078 0 0 0 56.6875,107.125 l 2.175781,-4.83203 4.09961,3.36914 a 1.2781078,1.2781078 0 0 0 2.05664,-0.70117 l 1.19336,-5.173831 4.68164,2.509771 a 1.2781078,1.2781078 0 0 0 1.88086,-1.08985 l 0.154297,-5.304686 5.080078,1.548828 a 1.2781078,1.2781078 0 0 0 1.632812,-1.435547 l -0.880859,-5.236328 5.28125,0.529297 a 1.2781078,1.2781078 0 0 0 1.322265,-1.72461 l -1.886718,-4.966796 5.287109,-0.515626 a 1.2781078,1.2781078 0 0 0 0.958984,-1.949218 l -2.814453,-4.5 5.072266,-1.535156 a 1.2781078,1.2781078 0 0 0 0.5625,-2.097657 l -3.632813,-3.865234 4.679688,-2.496094 a 1.2781078,1.2781078 0 0 0 0.140625,-2.167969 l -4.320313,-3.078125 4.09961,-3.363281 A 1.2781078,1.2781078 0 0 0 93.226562,56.894531 L 88.394531,54.71875 91.763672,50.619141 A 1.2781078,1.2781078 0 0 0 91.0625,48.5625 l -5.175781,-1.191406 2.511719,-4.681641 a 1.2781078,1.2781078 0 0 0 -1.089844,-1.880859 l -5.304688,-0.15625 1.548828,-5.080078 a 1.2781078,1.2781078 0 0 0 -1.435546,-1.632813 l -5.236329,0.882813 0.529297,-5.283204 a 1.2781078,1.2781078 0 0 0 -1.724609,-1.322265 l -4.966797,1.886719 -0.515625,-5.285157 a 1.2781078,1.2781078 0 0 0 -1.949219,-0.960937 l -4.5,2.814453 -1.535156,-5.072266 a 1.2781078,1.2781078 0 0 0 -2.097656,-0.560547 l -3.863282,3.632813 -2.496093,-4.681641 a 1.2781078,1.2781078 0 0 0 -1.173828,-0.675781 z m -0.111329,3.699219 0.890626,1.669922 c -0.338068,-0.03056 -0.647585,-0.142027 -0.988282,-0.164063 -0.340278,-0.02201 -0.661228,0.0484 -1,0.03516 z m -7.99414,0.271484 1.208984,1.476563 c -0.660215,0.06995 -1.319842,0.112248 -1.970703,0.214843 z m 15.888672,1.027344 0.537109,1.777344 c -0.63345,-0.185996 -1.282702,-0.315999 -1.929687,-0.470703 z m -23.679688,0.789062 1.478516,1.214844 c -0.635182,0.198663 -1.273001,0.369818 -1.894531,0.59961 z m 15.523438,1.96875 c 0.924789,0.05982 1.778476,0.319505 2.68164,0.445313 a 1.2781078,1.2781078 0 0 0 1.732422,0.289063 c 1.797502,0.338241 3.535419,0.779021 5.22461,1.365234 a 1.2781078,1.2781078 0 0 0 1.673828,0.640625 c 1.681754,0.678083 3.290809,1.448823 4.833984,2.355469 a 1.2781078,1.2781078 0 0 0 1.542969,0.970703 c 1.506692,0.989364 2.923378,2.063915 4.261719,3.255859 a 1.2781078,1.2781078 0 0 0 1.324218,1.244141 c 1.282938,1.261391 2.457396,2.598431 3.542969,4.033203 a 1.2781078,1.2781078 0 0 0 1.064453,1.474609 c 1.009069,1.480148 1.891053,3.023661 2.677735,4.644531 a 1.2781078,1.2781078 0 0 0 0.763671,1.652344 c 0.700494,1.647243 1.256955,3.342399 1.712891,5.097656 a 1.2781078,1.2781078 0 0 0 0.419922,1.744141 c 0.363663,1.750299 0.575782,3.52973 0.679687,5.355469 a 1.2781078,1.2781078 0 0 0 0.0625,1.755859 c 0.0084,0.911982 0.157481,1.791867 0.09766,2.716797 -0.05985,0.925314 -0.321349,1.77993 -0.447266,2.683594 a 1.2781078,1.2781078 0 0 0 -0.287109,1.732422 c -0.338155,1.79683 -0.779289,3.534057 -1.365235,5.222656 a 1.2781078,1.2781078 0 0 0 -0.640625,1.675781 c -0.67818,1.68185 -1.448698,3.290738 -2.355468,4.833985 a 1.2781078,1.2781078 0 0 0 -0.970704,1.542968 c -0.989091,1.506161 -2.062369,2.923802 -3.253906,4.261719 a 1.2781078,1.2781078 0 0 0 -1.246094,1.326172 c -1.261146,1.282554 -2.598767,2.455734 -4.033203,3.541016 a 1.2781078,1.2781078 0 0 0 -1.472656,1.064453 c -1.480864,1.00959 -3.024761,1.890754 -4.646484,2.677734 a 1.2781078,1.2781078 0 0 0 -1.6543,0.763672 c -1.646731,0.700058 -3.341049,1.257222 -5.095703,1.712891 a 1.2781078,1.2781078 0 0 0 -1.744141,0.419921 c -1.750031,0.363505 -3.530031,0.575858 -5.355469,0.679688 a 1.2781078,1.2781078 0 0 0 -1.755859,0.0625 c -0.911746,0.008 -1.79211,0.15747 -2.716797,0.0977 -0.924788,-0.0598 -1.778477,-0.31951 -2.681641,-0.445316 A 1.2781078,1.2781078 0 0 0 43.056641,99.675821 C 41.259141,99.337579 39.52122,98.8968 37.832031,98.310587 A 1.2781078,1.2781078 0 0 0 36.158203,97.669922 C 34.475932,96.991629 32.86587,96.221446 31.322266,95.314453 A 1.2781078,1.2781078 0 0 0 29.78125,94.34375 C 28.27456,93.354386 26.85787,92.279834 25.519531,91.087891 A 1.2781078,1.2781078 0 0 0 24.195312,89.84375 c -1.28308,-1.261532 -2.457297,-2.598253 -3.542968,-4.033203 a 1.2781078,1.2781078 0 0 0 -1.0625,-1.472656 1.2781078,1.2781078 0 0 0 -0.002,0 C 18.578343,82.857089 17.69516,81.313056 16.908203,79.691406 a 1.2781078,1.2781078 0 0 0 -0.761719,-1.652344 c -0.700387,-1.647067 -1.257005,-3.342599 -1.71289,-5.097656 a 1.2781078,1.2781078 0 0 0 -0.419922,-1.74414 c -0.363666,-1.750311 -0.577736,-3.529718 -0.681641,-5.355469 a 1.2781078,1.2781078 0 0 0 -0.0625,-1.755859 c -0.0084,-0.911973 -0.157479,-1.791877 -0.09766,-2.716797 0.0598,-0.92455 0.319554,-1.778705 0.445313,-2.681641 a 1.2781078,1.2781078 0 0 0 0.289062,-1.734375 c 0.338138,-1.79675 0.779326,-3.534127 1.365234,-5.222656 a 1.2781078,1.2781078 0 0 0 0.640625,-1.675781 c 0.678212,-1.681987 1.450585,-3.290622 2.357422,-4.833985 a 1.2781078,1.2781078 0 0 0 0.96875,-1.541015 c 0.98915,-1.506494 2.062233,-2.923517 3.253907,-4.261719 a 1.2781078,1.2781078 0 0 0 1.246093,-1.326172 c 1.261215,-1.282698 2.598667,-2.455619 4.033203,-3.541016 a 1.2781078,1.2781078 0 0 0 1.47461,-1.064453 c 1.480856,-1.009552 3.024775,-1.89274 4.646484,-2.679687 a 1.2781078,1.2781078 0 0 0 1.652344,-0.761719 c 1.647447,-0.700488 3.34218,-1.25897 5.097656,-1.714844 a 1.2781078,1.2781078 0 0 0 1.742188,-0.417969 c 1.750684,-0.363744 3.531267,-0.57777 5.357422,-0.68164 a 1.2781078,1.2781078 0 0 0 1.753906,-0.0625 c 0.912382,-0.0085 1.793408,-0.157507 2.71875,-0.09766 z m 15.644531,0.04883 0.181641,1.851562 C 67.454627,28.662939 66.84415,28.411501 66.240234,28.132812 Z m -38.455078,1.294921 1.679687,0.900391 c -0.585243,0.319841 -1.167173,0.628122 -1.734375,0.976563 z m 45.255859,2.927735 -0.1875,1.869141 c -0.517799,-0.418791 -1.054357,-0.800629 -1.59375,-1.19336 z m -51.753906,1.734375 1.818359,0.554687 c -0.514787,0.429535 -1.011591,0.865195 -1.503906,1.320313 z m 57.599609,3.726562 -0.554687,1.81836 C 79.52189,38.106677 79.085689,37.611113 78.630859,37.119141 Z m -63.0625,2.119141 1.869141,0.1875 c -0.418825,0.517838 -0.800598,1.054315 -1.193359,1.59375 z m 65.847657,4.326172 1.878906,0.05469 -0.902344,1.681641 C 83.94746,44.398565 83.639788,43.81579 83.291016,43.248051 Z m -68.21875,2.294922 c -0.307483,0.585912 -0.559436,1.195419 -0.837891,1.798828 l -1.013672,-1.619141 z m 71.59375,4.628906 1.8125,0.417969 -1.212891,1.476562 c -0.198682,-0.635139 -0.369801,-1.273043 -0.599609,-1.894531 z m -74.476563,2.503906 c -0.185691,0.632568 -0.312309,1.281671 -0.466797,1.927735 l -1.30664,-1.390625 z m 76.414063,4.939453 1.695312,0.763672 -1.478516,1.212891 c -0.07014,-0.662302 -0.113809,-1.323674 -0.216796,-1.976563 z m -77.816407,2.59961 c -0.03056,0.338081 -0.142025,0.64757 -0.164062,0.988281 -0.02205,0.340945 0.04841,0.662521 0.03516,1.001953 l -1.5410195,-1.09961 z m 78.240235,5.0625 1.541015,1.097656 -1.669921,0.890625 c 0.03056,-0.338067 0.142026,-0.647584 0.164062,-0.988281 0.02201,-0.340278 -0.0484,-0.661228 -0.03516,-1 z m -78.164063,2.613281 c 0.07003,0.661015 0.114039,1.321019 0.216797,1.972656 l -1.6933592,-0.76172 z m 77.09961,4.986328 1.30664,1.390625 -1.77539,0.539063 c 0.185926,-0.633251 0.314095,-1.282912 0.46875,-1.929688 z m -75.544922,2.539063 c 0.198346,0.633955 0.370252,1.27027 0.599609,1.890625 l -1.810547,-0.416016 z m 73.033203,4.722656 1.013672,1.621094 -1.851563,0.179687 c 0.307783,-0.586422 0.559188,-1.19683 0.837891,-1.800781 z m -70.035156,2.359375 c 0.320278,0.586045 0.629559,1.168375 0.978515,1.736328 l -1.878906,-0.05469 z m 66.15039,4.279297 0.675782,1.78125 -1.869141,-0.1875 c 0.418757,-0.517762 0.800657,-1.054398 1.193359,-1.59375 z m -61.832031,2.083984 c 0.429259,0.514344 0.865512,1.010049 1.320313,1.501953 l -1.875,0.314453 z m 56.730469,3.667969 0.314453,1.875 -1.818359,-0.554688 c 0.514713,-0.429528 1.011663,-0.865206 1.503906,-1.320312 z m -51.253906,1.742187 c 0.517438,0.418474 1.054748,0.798955 1.59375,1.191407 l -1.78125,0.675781 z m 45.125,2.916016 -0.05469,1.878906 -1.681641,-0.90039 c 0.586165,-0.320339 1.168263,-0.629489 1.736329,-0.978516 z m -38.691407,1.322266 c 0.587169,0.308171 1.197993,0.560826 1.802735,0.839843 l -1.621094,1.01172 z m 31.765625,2.054683 -0.417968,1.81446 -1.476563,-1.21485 c 0.635235,-0.19868 1.27295,-0.36979 1.894531,-0.59961 z m -24.632812,0.82813 c 0.632706,0.18573 1.281526,0.31423 1.927734,0.46875 l -1.390625,1.30664 z m 17.1875,1.11133 -0.761719,1.69336 -1.212891,-1.47852 c 0.66141,-0.07 1.322587,-0.11207 1.97461,-0.21484 z m -9.646485,0.29297 c 0.337422,0.0305 0.646287,0.14206 0.986329,0.16406 0.340881,0.0221 0.662582,-0.0504 1.001953,-0.0371 l -1.097657,1.54297 z"
           style="color:#000000;font-style:normal;font-variant:normal;font-weight:normal;font-stretch:normal;font-size:medium;line-height:normal;font-family:sans-serif;font-variant-ligatures:normal;font-variant-position:normal;font-variant-caps:normal;font-variant-numeric:normal;font-variant-alternates:normal;font-variant-east-asian:normal;font-feature-settings:normal;font-variation-settings:normal;text-indent:0;text-align:start;text-decoration:none;text-decoration-line:none;text-decoration-style:solid;text-decoration-color:#000000;letter-spacing:normal;word-spacing:normal;text-transform:none;writing-mode:lr-tb;direction:ltr;text-orientation:mixed;dominant-baseline:auto;baseline-shift:baseline;text-anchor:start;white-space:normal;shape-padding:0;shape-margin:0;inline-size:0;clip-rule:nonzero;display:inline;overflow:visible;visibility:visible;isolation:auto;mix-blend-mode:normal;color-interpolation:sRGB;color-interpolation-filters:linearRGB;solid-color:#000000;solid-opacity:1;vector-effect:none;fill:#2b1100;fill-opacity:1;fill-rule:evenodd;stroke:none;stroke-width:2.55596;stroke-linecap:round;stroke-linejoin:round;stroke-miterlimit:4;stroke-dasharray:none;stroke-dashoffset:0;stroke-opacity:1;color-rendering:auto;image-rendering:auto;shape-rendering:auto;text-rendering:auto;enable-background:accumulate;stop-color:#000000;stop-opacity:1" />
      </g>
      <path
         d="m 51.404492,23.4937 c -17.96695,-0.691877 -34.857287,10.820555 -40.181771,28.824912 -6.2940936,21.283047 5.915632,43.747199 27.198694,50.041298 21.28307,6.2941 43.747202,-5.915648 50.041298,-27.198694 6.29411,-21.283078 -5.915632,-43.74668 -27.198708,-50.040782 -2.99407,-0.88545 -6.011656,-1.404933 -9.003615,-1.584591 -0.285684,-0.0172 -0.570714,-0.03118 -0.855898,-0.04215 z m 8.151827,4.916096 5.29e-4,1.6e-5 0.0036,6.42e-4 c 0.214571,0.01578 0.426507,0.05772 0.631015,0.124588 1.36277,0.441466 2.124427,1.892257 1.716579,3.27028 -0.414939,1.403435 -1.889285,2.204761 -3.29272,1.789814 -1.403434,-0.414954 -2.204774,-1.889285 -1.789814,-3.292722 0.35253,-1.194134 1.488924,-1.981671 2.730823,-1.892604 z m -8.454413,2.46521 c 0.308542,0.01092 0.617371,0.02662 0.925566,0.04638 0.03215,0.0021 0.06392,0.0041 0.09597,0.0061 0.36307,0.02459 0.726011,0.05503 1.088044,0.09176 l 2.700105,5.258822 c 0.609344,1.184168 2.059955,1.657482 3.246547,1.039922 l 5.613395,-2.879851 c 8.527941,4.360959 14.707481,12.25142 16.897287,21.576036 l -4.998879,5.87749 c -0.86021,1.01609 -0.735249,2.545439 0.270233,3.411398 l 5.011624,4.263627 c -0.354296,1.855998 -0.869179,3.677547 -1.538983,5.444357 l -3.210572,-0.949876 c -0.318633,-0.09424 -0.512282,0.0797 -0.604122,0.39016 L 76.16304,75.92214 c -1.024445,3.464102 -3.201976,3.64629 -4.973278,3.326824 -1.689617,-0.295178 -3.236059,-1.703042 -3.170042,-2.767473 0.637837,-5.701847 -0.62332,-7.328196 -2.564078,-10.078843 3.735035,-1.063297 7.876088,-3.045768 9.040681,-6.983768 1.258807,-4.256583 -0.865779,-7.79833 -2.4621,-9.700839 -2.250546,-2.664594 -5.230013,-3.946498 -6.063361,-4.19295 L 56.552414,42.61746 c -0.211195,-0.06521 -0.417768,-0.401771 -0.448577,-0.620934 -0.291549,-2.074202 -1.340094,-4.034844 -2.970784,-5.349446 -1.519126,-1.224672 -3.4703,-1.893143 -5.421597,-1.888292 -1.521504,0.0038 -3.031195,0.405647 -4.390756,1.088698 -0.92913,0.4668 -1.788758,1.061141 -2.701331,1.559531 -0.91257,0.49839 -1.902658,0.905911 -2.941442,0.951807 -0.846061,0.03738 -1.676825,-0.168015 -2.471524,-0.475524 l -0.0077,-0.03436 -0.0531,0.01179 C 34.859261,37.747801 34.57768,37.622143 34.302009,37.489632 33.353155,37.033529 32.446915,36.490188 31.5908,35.877488 36.617288,32.78952 42.398059,31.042248 48.352367,30.811166 l -0.02791,0.08289 c 0.925363,-0.04581 1.851849,-0.05214 2.777476,-0.01904 z m -26.688521,10.923856 6.979849,31.414361 c -0.243746,1.017251 -0.482925,2.011275 -0.731992,3.053976 L 24.062321,46.567736 A 2.7594306,2.7594306 0 0 0 24.708947,44.878092 2.7594306,2.7594306 0 0 0 23.6713,42.63505 c 0.242262,-0.282969 0.490303,-0.561168 0.742085,-0.836188 z m 0.938812,0.766993 c 0.11651,0.108374 0.23146,0.218487 0.350806,0.323709 0.438304,0.386443 0.897644,0.7515 1.374357,1.092307 l 5.446554,24.513621 c -0.239472,0.994767 -0.490299,2.046988 -0.731992,3.053976 z m 2.627233,2.017972 c 0.517826,0.321148 1.053439,0.611457 1.603613,0.869367 l 4.07562,18.343308 c -0.243596,1.007599 -0.492507,2.033464 -0.735173,3.039917 z m 2.453503,1.23756 c 0.497545,0.196021 1.005946,0.3628 1.522049,0.499748 l 2.839321,12.781056 c -0.249122,1.026791 -0.490211,2.027577 -0.735159,3.039401 z m 6.804658,0.723584 c 0.464362,-0.01886 0.571822,0.19983 0.321156,1.193438 -0.03016,0.123767 -0.05532,0.226767 -0.08534,0.349948 l -0.34057,-1.533204 c 0.03474,-0.0033 0.07329,-0.0089 0.104753,-0.01019 z m -4.47308,-0.03734 c 0.302925,0.06007 0.607741,0.111755 0.915118,0.149459 0.189266,0.03514 0.370662,0.06108 0.546562,0.0806 l 1.706512,7.681133 c -0.241189,0.991574 -0.502586,2.062515 -0.737435,3.029507 z m 3.624517,0.158282 0.682994,3.07319 c -0.254304,1.043756 -0.492082,2.021499 -0.737436,3.029506 L 35.00353,46.77894 c 0.543517,0.0018 1.007077,-0.05313 1.385498,-0.113025 z m -12.970254,0.462403 6.843763,30.803151 c -0.229391,0.96196 -0.492099,2.076154 -0.728341,3.0696 L 22.101319,47.54695 a 2.7594306,2.7594306 0 0 0 1.317455,-0.418632 z m -2.967059,-0.01943 a 2.7594306,2.7594306 0 0 0 0.8659,0.368692 l 7.819687,35.196087 c -0.469868,1.978842 -0.915162,3.846181 -1.422712,5.994459 -1.1666,-0.929205 -1.645121,-1.434113 -2.664565,-2.496338 A 2.7594306,2.7594306 0 0 0 25.751361,84.418704 2.7594306,2.7594306 0 0 0 23.079,81.57469 2.7594306,2.7594306 0 0 0 21.605797,81.94763 C 17.46683,75.925973 15.475115,68.758572 15.941287,61.547314 16.270661,56.455746 17.815465,51.51363 20.451715,47.108891 Z m 25.69768,3.073981 10.547239,3.119042 c 0.547389,0.161883 3.661835,1.767242 2.929738,4.242789 -0.606474,2.050672 -3.355875,2.036691 -5.43925,1.420567 l -9.788017,-2.894297 z m 36.790239,10.28458 c 0.02337,9.81e-4 0.04683,0.0023 0.07019,0.0038 0.216199,0.01562 0.429709,0.05809 0.635634,0.12577 1.362348,0.446278 2.122849,1.895074 1.716079,3.269745 -0.426315,1.388609 -1.891142,2.17495 -3.284137,1.763195 -1.392999,-0.41175 -2.195036,-1.868338 -1.797896,-3.265571 0.344852,-1.168937 1.442602,-1.951497 2.660124,-1.896874 z m -41.033626,4.062369 8.080521,2.389295 c 0.735304,0.217454 3.883119,1.379007 3.691474,5.782381 -0.05349,1.352424 -0.555579,5.664536 -0.462557,7.122472 0.04715,1.613168 1.130437,5.131749 3.213791,5.74787 l 13.186092,3.899641 c -1.233823,0.921985 -2.531216,1.755684 -3.88284,2.494238 L 60.704975,89.226266 C 59.534682,88.587017 58.065259,89.02315 57.425963,90.193421 L 54.391982,95.76394 C 47.670965,96.695973 40.064688,95.161467 34.14159,92.107729 l 3.527589,-12.228782 0.08485,-0.01856 7.064946,2.278074 c 0.285917,0.08456 0.496548,0.09357 0.576259,-0.175949 l 2.672378,-9.036461 c 0.07737,-0.261547 -0.101942,-0.376796 -0.387881,-0.461356 l -7.113282,-2.103794 0.0041,-0.01538 -0.277882,0.0079 z m 18.973707,28.318922 5.29e-4,1.7e-5 c 0.240023,0.01078 0.477529,0.05469 0.705831,0.129502 1.36285,0.446312 2.123469,1.895803 1.716047,3.270777 -0.423722,1.39211 -1.890955,2.181941 -3.286396,1.769332 -1.39543,-0.412623 -2.197116,-1.873538 -1.795622,-3.272221 0.344807,-1.168759 1.442278,-1.951786 2.659625,-1.897406 z"
         style="fill:#552200;stroke-width:0.851985"
         id="path1723-8" />
    </g>
  </g>
</svg>
