<?xml version="1.0" encoding="UTF-8" standalone="no"?>
<svg
   xmlns:dc="http://purl.org/dc/elements/1.1/"
   xmlns:cc="http://creativecommons.org/ns#"
   xmlns:rdf="http://www.w3.org/1999/02/22-rdf-syntax-ns#"
   xmlns:svg="http://www.w3.org/2000/svg"
   xmlns="http://www.w3.org/2000/svg"
   xmlns:sodipodi="http://sodipodi.sourceforge.net/DTD/sodipodi-0.dtd"
   xmlns:inkscape="http://www.inkscape.org/namespaces/inkscape"
   width="2560"
   height="1440"
   viewBox="0 0 677.3333 381.00001"
   version="1.1"
   id="svg8"
   sodipodi:docname="RustDublinLogoYouTube.svg"
   inkscape:version="1.0 (4035a4fb49, 2020-05-01)">
  <defs
     id="defs2">
    <inkscape:path-effect
       effect="spiro"
       id="path-effect1743"
       is_visible="true"
       lpeversion="1" />
    <inkscape:path-effect
       effect="spiro"
       id="path-effect1529"
       is_visible="true"
       lpeversion="1" />
  </defs>
  <sodipodi:namedview
     inkscape:snap-page="true"
     id="base"
     pagecolor="#ffffff"
     bordercolor="#666666"
     borderopacity="1.0"
     inkscape:pageopacity="0.0"
     inkscape:pageshadow="2"
     inkscape:zoom="0.49497475"
     inkscape:cx="1965.007"
     inkscape:cy="1200.7696"
     inkscape:document-units="px"
     inkscape:current-layer="layer2"
     inkscape:document-rotation="0"
     showgrid="false"
     inkscape:window-width="3747"
     inkscape:window-height="2126"
     inkscape:window-x="82"
     inkscape:window-y="-11"
     inkscape:window-maximized="1"
     inkscape:object-nodes="false"
     inkscape:snap-others="false"
     inkscape:snap-nodes="false"
     inkscape:snap-global="true"
     units="px"
     lock-margins="true"
     fit-margin-top="10"
     fit-margin-left="10"
     fit-margin-right="10"
     fit-margin-bottom="10" />
  <metadata
     id="metadata5">
    <rdf:RDF>
      <cc:Work
         rdf:about="">
        <dc:format>image/svg+xml</dc:format>
        <dc:type
           rdf:resource="http://purl.org/dc/dcmitype/StillImage" />
        <dc:title></dc:title>
      </cc:Work>
    </rdf:RDF>
  </metadata>
  <g
     inkscape:groupmode="layer"
     id="layer2"
     inkscape:label="Layer 2"
     style="display:inline"
     transform="translate(-2.7715782,-16.667788)">
    <rect
       y="13.995092"
       x="0.82241559"
       height="153.94725"
       width="680.81378"
       id="rect2140"
       style="opacity:1;fill:#e3dbdb;fill-opacity:1;fill-rule:nonzero;stroke:none;stroke-width:0.681574;stroke-linecap:round;stroke-linejoin:round;stroke-miterlimit:4;stroke-dasharray:none;stroke-dashoffset:0;stroke-opacity:1" />
    <g
       transform="translate(-84.323534,-3.026497)"
       id="g2566">
      <g
         style="font-style:oblique;font-variant:normal;font-weight:bold;font-stretch:normal;font-size:45.1798px;line-height:0.8;font-family:'DejaVu Sans';-inkscape-font-specification:'DejaVu Sans, Bold Oblique';font-variant-ligatures:normal;font-variant-caps:normal;font-variant-numeric:normal;font-variant-east-asian:normal;letter-spacing:-4.28644px;word-spacing:0px;fill:#2b1100;fill-opacity:1;stroke:none;stroke-width:0.847122"
         id="text1812"
         aria-label="R">
        <path
           id="path1936"
           style="font-style:oblique;font-variant:normal;font-weight:bold;font-stretch:normal;font-size:45.1798px;font-family:'DejaVu Sans';-inkscape-font-specification:'DejaVu Sans, Bold Oblique';font-variant-ligatures:normal;font-variant-caps:normal;font-variant-numeric:normal;font-variant-east-asian:normal;fill:#2b1100;stroke-width:0.847122"
           d="m 115.06455,46.598546 q 2.88992,0 4.36797,-1.345687 1.50011,-1.345688 1.50011,-3.948821 0,-1.632473 -1.03684,-2.382528 -1.01479,-0.772116 -3.22083,-0.772116 h -3.50761 l -1.6766,8.449152 z m -4.69888,5.868079 -2.44871,12.464154 h -8.493271 l 6.419591,-32.93625 h 12.55239 q 5.42688,0 8.22855,2.029561 2.80168,2.029562 2.80168,5.978382 0,3.992941 -2.20605,6.574014 -2.20604,2.581072 -5.97838,2.9561 1.72072,0.352967 2.86786,1.764835 1.14714,1.389809 2.0075,4.279727 l 2.80168,9.353631 h -8.44915 l -2.47077,-8.184427 q -0.75006,-2.44871 -1.83102,-3.353188 -1.0589,-0.926539 -3.08846,-0.926539 z" />
      </g>
      <g
         style="font-style:oblique;font-variant:normal;font-weight:bold;font-stretch:normal;font-size:45.1798px;line-height:0.8;font-family:'DejaVu Sans';-inkscape-font-specification:'DejaVu Sans, Bold Oblique';font-variant-ligatures:normal;font-variant-caps:normal;font-variant-numeric:normal;font-variant-east-asian:normal;letter-spacing:-4.28644px;word-spacing:0px;fill:#2b1100;fill-opacity:1;stroke:none;stroke-width:0.847122"
         id="text1820"
         aria-label="U">
        <path
           id="path1939"
           style="font-style:oblique;font-variant:normal;font-weight:bold;font-stretch:normal;font-size:45.1798px;font-family:'DejaVu Sans';-inkscape-font-specification:'DejaVu Sans, Bold Oblique';font-variant-ligatures:normal;font-variant-caps:normal;font-variant-numeric:normal;font-variant-east-asian:normal;fill:#2b1100;stroke-width:0.847122"
           d="m 133.56819,32.529685 h 8.49327 l -3.83852,19.722041 q -0.2206,1.058902 -0.33091,1.875138 -0.0882,0.816237 -0.0882,1.433929 0,2.161924 1.14715,3.242886 1.1692,1.058902 3.46349,1.058902 3.08846,0 4.74299,-1.720715 1.65454,-1.742775 2.44871,-5.868079 l 3.83852,-19.744102 h 8.49327 l -3.83851,19.744102 q -1.43393,7.279948 -5.44894,10.566954 -3.99294,3.264947 -11.44937,3.264947 -5.84602,0 -8.89036,-2.492831 -3.04434,-2.514891 -3.04434,-7.279948 0,-0.794176 0.1103,-1.764836 0.1103,-0.99272 0.35297,-2.294286 z" />
      </g>
      <g
         style="font-style:oblique;font-variant:normal;font-weight:bold;font-stretch:normal;font-size:45.1798px;line-height:0.8;font-family:'DejaVu Sans';-inkscape-font-specification:'DejaVu Sans, Bold Oblique';font-variant-ligatures:normal;font-variant-caps:normal;font-variant-numeric:normal;font-variant-east-asian:normal;letter-spacing:-4.28644px;word-spacing:0px;fill:#2b1100;fill-opacity:1;stroke:none;stroke-width:0.847122"
         id="text1826"
         aria-label="S">
        <path
           id="path1942"
           style="font-style:oblique;font-variant:normal;font-weight:bold;font-stretch:normal;font-size:45.1798px;font-family:'DejaVu Sans';-inkscape-font-specification:'DejaVu Sans, Bold Oblique';font-variant-ligatures:normal;font-variant-caps:normal;font-variant-numeric:normal;font-variant-east-asian:normal;fill:#2b1100;stroke-width:0.847122"
           d="m 187.29091,32.694166 -1.36774,6.971102 q -2.49283,-1.235385 -4.91948,-1.831017 -2.42665,-0.617693 -4.743,-0.617693 -3.1767,0 -4.9636,0.99272 -1.76484,0.992721 -1.76484,2.757556 0,1.125083 0.77212,1.764836 0.79417,0.617693 3.24288,1.213325 l 3.48556,0.860357 q 4.36796,1.103023 6.39753,3.198765 2.05162,2.073683 2.05162,5.38275 0,5.360689 -4.08119,8.603575 -4.05912,3.242886 -10.91992,3.242886 -3.19876,0 -6.37547,-0.595633 -3.15464,-0.595632 -6.17692,-1.764835 l 1.34568,-7.169646 q 2.93404,1.698654 5.6916,2.536951 2.77962,0.838297 5.47099,0.838297 2.91198,0 4.72094,-1.191264 1.83101,-1.191264 1.83101,-3.044342 0,-1.213324 -0.81623,-1.875138 -0.81624,-0.683874 -3.57379,-1.389808 l -3.4635,-0.860357 q -3.83851,-0.9486 -5.71365,-3.000221 -1.87514,-2.051622 -1.87514,-5.316568 0,-5.140085 3.92676,-8.228548 3.94882,-3.110523 10.61108,-3.110523 2.66931,0 5.47099,0.419149 2.82373,0.397088 5.73571,1.213324 z" />
      </g>
      <g
         style="font-style:oblique;font-variant:normal;font-weight:bold;font-stretch:normal;font-size:45.1798px;line-height:0.8;font-family:'DejaVu Sans';-inkscape-font-specification:'DejaVu Sans, Bold Oblique';font-variant-ligatures:normal;font-variant-caps:normal;font-variant-numeric:normal;font-variant-east-asian:normal;letter-spacing:-4.28644px;word-spacing:0px;fill:#2b1100;fill-opacity:1;stroke:none;stroke-width:0.847122"
         id="text1832"
         aria-label="T">
        <path
           id="path1945"
           style="font-style:oblique;font-variant:normal;font-weight:bold;font-stretch:normal;font-size:45.1798px;font-family:'DejaVu Sans';-inkscape-font-specification:'DejaVu Sans, Bold Oblique';font-variant-ligatures:normal;font-variant-caps:normal;font-variant-numeric:normal;font-variant-east-asian:normal;fill:#2b1100;stroke-width:0.847122"
           d="m 188.54168,31.994529 h 30.35518 l -1.25745,6.419591 h -10.94198 l -5.16215,26.516659 h -8.49327 l 5.16215,-26.516659 h -10.94199 z" />
      </g>
    </g>
    <g
       transform="translate(50.914844,-39.555889)"
       id="g2580">
      <g
         style="font-style:oblique;font-variant:normal;font-weight:bold;font-stretch:normal;font-size:45.1798px;line-height:0.8;font-family:'DejaVu Sans';-inkscape-font-specification:'DejaVu Sans, Bold Oblique';font-variant-ligatures:normal;font-variant-caps:normal;font-variant-numeric:normal;font-variant-east-asian:normal;letter-spacing:-4.28644px;word-spacing:0px;fill:#2b1100;fill-opacity:1;stroke:none;stroke-width:0.847122"
         id="text1838"
         aria-label="D">
        <path
           id="path1960"
           style="font-style:oblique;font-variant:normal;font-weight:bold;font-stretch:normal;font-size:45.1798px;font-family:'DejaVu Sans';-inkscape-font-specification:'DejaVu Sans, Bold Oblique';font-variant-ligatures:normal;font-variant-caps:normal;font-variant-numeric:normal;font-variant-east-asian:normal;fill:#2b1100;stroke-width:0.847122"
           d="m 106.03648,75.210773 -3.94882,20.097069 h 3.04434 q 5.93426,0 9.39775,-3.331128 3.46349,-3.331128 3.46349,-9.000663 0,-3.838518 -2.27222,-5.801898 -2.25017,-1.96338 -6.70638,-1.96338 z m -7.279946,-6.41959 h 8.934486 q 6.39753,0 9.59629,0.772116 3.19877,0.750055 5.31657,2.536951 2.13986,1.786896 3.22082,4.345908 1.08097,2.536952 1.08097,5.757778 0,4.478271 -1.85308,8.449151 -1.83102,3.94882 -5.16215,6.640195 -2.91198,2.404589 -6.77255,3.419368 -3.83852,1.01478 -11.8244,1.01478 h -8.956547 z" />
      </g>
      <g
         style="font-style:oblique;font-variant:normal;font-weight:bold;font-stretch:normal;font-size:45.1798px;line-height:0.8;font-family:'DejaVu Sans';-inkscape-font-specification:'DejaVu Sans, Bold Oblique';font-variant-ligatures:normal;font-variant-caps:normal;font-variant-numeric:normal;font-variant-east-asian:normal;letter-spacing:-4.28644px;word-spacing:0px;fill:#2b1100;fill-opacity:1;stroke:none;stroke-width:0.847122"
         id="text1844"
         aria-label="U">
        <path
           id="path1957"
           style="font-style:oblique;font-variant:normal;font-weight:bold;font-stretch:normal;font-size:45.1798px;font-family:'DejaVu Sans';-inkscape-font-specification:'DejaVu Sans, Bold Oblique';font-variant-ligatures:normal;font-variant-caps:normal;font-variant-numeric:normal;font-variant-east-asian:normal;fill:#2b1100;stroke-width:0.847122"
           d="m 131.14497,69.059074 h 8.49327 l -3.83852,19.722041 q -0.2206,1.058901 -0.3309,1.875138 -0.0882,0.816236 -0.0882,1.433929 0,2.161924 1.14715,3.242886 1.1692,1.058901 3.46349,1.058901 3.08846,0 4.743,-1.720715 1.65453,-1.742775 2.4487,-5.868079 l 3.83852,-19.744101 h 8.49328 l -3.83852,19.744101 q -1.43393,7.279948 -5.44893,10.566955 -3.99294,3.26495 -11.44938,3.26495 -5.84601,0 -8.89036,-2.49283 -3.04434,-2.514896 -3.04434,-7.279952 0,-0.794177 0.1103,-1.764836 0.11031,-0.99272 0.35297,-2.294287 z" />
      </g>
      <text
         xml:space="preserve"
         style="font-style:oblique;font-variant:normal;font-weight:bold;font-stretch:normal;font-size:45.1798px;line-height:0.8;font-family:'DejaVu Sans';-inkscape-font-specification:'DejaVu Sans, Bold Oblique';font-variant-ligatures:normal;font-variant-caps:normal;font-variant-numeric:normal;font-variant-east-asian:normal;letter-spacing:-4.28644px;word-spacing:0px;fill:#2b1100;fill-opacity:1;stroke:none;stroke-width:0.847122"
         x="154.1436"
         y="101.72743"
         id="text1850"><tspan
           sodipodi:role="line"
           x="154.1436"
           y="101.72743"
           style="font-style:oblique;font-variant:normal;font-weight:bold;font-stretch:normal;font-size:45.1798px;font-family:'DejaVu Sans';-inkscape-font-specification:'DejaVu Sans, Bold Oblique';font-variant-ligatures:normal;font-variant-caps:normal;font-variant-numeric:normal;font-variant-east-asian:normal;fill:#2b1100;stroke-width:0.847122"
           id="tspan1848">B</tspan></text>
      <g
         transform="translate(0,-0.13363476)"
         style="font-style:oblique;font-variant:normal;font-weight:bold;font-stretch:normal;font-size:45.1798px;line-height:0.8;font-family:'DejaVu Sans';-inkscape-font-specification:'DejaVu Sans, Bold Oblique';font-variant-ligatures:normal;font-variant-caps:normal;font-variant-numeric:normal;font-variant-east-asian:normal;letter-spacing:-4.28644px;word-spacing:0px;fill:#2b1100;fill-opacity:1;stroke:none;stroke-width:0.847122"
         id="text1856"
         aria-label="L">
        <path
           id="path1948"
           style="font-style:oblique;font-variant:normal;font-weight:bold;font-stretch:normal;font-size:45.1798px;font-family:'DejaVu Sans';-inkscape-font-specification:'DejaVu Sans, Bold Oblique';font-variant-ligatures:normal;font-variant-caps:normal;font-variant-numeric:normal;font-variant-east-asian:normal;fill:#2b1100;stroke-width:0.847122"
           d="m 190.68496,68.791183 h 8.49327 l -5.16214,26.516659 h 14.86874 l -1.21332,6.419588 h -23.40614 z" />
      </g>
      <g
         transform="translate(0,-0.13363476)"
         style="font-style:oblique;font-variant:normal;font-weight:bold;font-stretch:normal;font-size:45.1798px;line-height:0.8;font-family:'DejaVu Sans';-inkscape-font-specification:'DejaVu Sans, Bold Oblique';font-variant-ligatures:normal;font-variant-caps:normal;font-variant-numeric:normal;font-variant-east-asian:normal;letter-spacing:-4.28644px;word-spacing:0px;fill:#2b1100;fill-opacity:1;stroke:none;stroke-width:0.847122"
         id="text1862"
         aria-label="I">
        <path
           id="path1951"
           style="font-style:oblique;font-variant:normal;font-weight:bold;font-stretch:normal;font-size:45.1798px;font-family:'DejaVu Sans';-inkscape-font-specification:'DejaVu Sans, Bold Oblique';font-variant-ligatures:normal;font-variant-caps:normal;font-variant-numeric:normal;font-variant-east-asian:normal;fill:#2b1100;stroke-width:0.847122"
           d="m 215.39976,68.791183 h 8.49327 l -6.41959,32.936247 h -8.49327 z" />
      </g>
      <g
         transform="translate(0,-0.13363476)"
         style="font-style:oblique;font-variant:normal;font-weight:bold;font-stretch:normal;font-size:45.1798px;line-height:0.8;font-family:'DejaVu Sans';-inkscape-font-specification:'DejaVu Sans, Bold Oblique';font-variant-ligatures:normal;font-variant-caps:normal;font-variant-numeric:normal;font-variant-east-asian:normal;letter-spacing:-4.28644px;word-spacing:0px;fill:#2b1100;fill-opacity:1;stroke:none;stroke-width:0.847122"
         id="text1868"
         aria-label="N">
        <path
           id="path1954"
           style="font-style:oblique;font-variant:normal;font-weight:bold;font-stretch:normal;font-size:45.1798px;font-family:'DejaVu Sans';-inkscape-font-specification:'DejaVu Sans, Bold Oblique';font-variant-ligatures:normal;font-variant-caps:normal;font-variant-numeric:normal;font-variant-east-asian:normal;fill:#2b1100;stroke-width:0.847122"
           d="m 225.29357,68.791183 h 9.486 l 7.54467,22.810503 4.43415,-22.810503 h 8.03 l -6.41959,32.936247 h -9.48599 l -7.54467,-22.810501 -4.41209,22.810501 h -8.05207 z" />
      </g>
    </g>
    <path
       id="path1518"
       d="m 546.82072,29.292247 c -2.77018,0.472638 -3.63669,1.115951 -4.33252,3.203434 -0.38073,1.142209 -0.47263,3.557913 -0.2757,6.800734 0.26258,3.964907 0.24945,3.978036 -3.24282,4.739508 -0.8665,0.196933 -1.98246,0.617055 -3.87301,1.470429 -2.59951,1.181595 -4.24061,1.824907 -4.60822,1.824907 -0.10503,0 -0.87963,-0.813987 -1.733,-1.811778 -5.12025,-5.986747 -7.47031,-6.918894 -10.73938,-4.26687 -0.42013,0.354479 -1.73301,1.693619 -2.9146,2.980245 -2.62577,2.875213 -3.11154,3.689201 -3.11154,5.251532 0,1.83804 0.98466,3.28221 4.64761,6.81386 l 2.2319,2.15313 -0.78773,1.23411 c -1.48356,2.28442 -3.0065,5.69791 -4.01742,9.07202 -0.22319,0.72209 -0.47264,1.24724 -0.6827,1.44417 l -0.32822,0.30197 -4.01742,0.0131 c -3.3216,0 -4.13559,0.0394 -4.64761,0.21006 -1.92994,0.64331 -2.78331,1.77239 -3.12466,4.16184 -0.19693,1.31288 -0.0919,6.70883 0.14442,7.69349 0.39386,1.68049 1.20785,2.77018 2.49447,3.37411 1.33914,0.63018 1.87743,0.69583 6.1443,0.69583 h 3.97803 l 0.31509,1.08969 c 0.80086,2.77018 2.69141,6.76135 4.05681,8.58625 1.31288,1.73301 1.44417,1.43105 -2.21877,5.028352 -4.1881,4.12245 -4.47693,4.51631 -4.47693,6.36748 0,0.99779 0.0394,1.18159 0.39386,1.79865 0.66957,1.15534 1.98246,2.71767 3.72859,4.39816 2.62577,2.56012 3.99117,3.41349 5.38282,3.40036 1.75926,0 3.11153,-0.90589 5.8292,-3.88613 0.73522,-0.80086 2.0481,-2.20564 2.92773,-3.12466 l 1.60172,-1.68049 1.29975,0.64331 c 2.32381,1.16847 5.34344,2.2319 8.53374,3.04589 0.28884,0.0788 0.66957,0.23632 0.82712,0.36761 l 0.28883,0.22319 -0.14441,2.9146 c -0.38074,7.73288 -0.14442,9.57091 1.35226,10.89693 0.81399,0.72208 1.92994,1.06343 3.97804,1.23411 1.79865,0.14441 5.96049,-0.0263 7.23399,-0.30197 2.20564,-0.47263 3.43975,-2.3238 3.6892,-5.51411 0.11816,-1.35226 0.0131,-4.27999 -0.26258,-7.5622 -0.13129,-1.60172 -0.11816,-1.77239 0.0919,-2.00871 0.13129,-0.14442 0.97154,-0.48577 1.94307,-0.78773 2.67828,-0.82712 4.04368,-1.3654 6.36748,-2.49448 l 2.16626,-1.05031 0.5908,0.69583 c 1.37852,1.57546 4.63447,5.09399 5.47472,5.89485 2.37632,2.27128 4.50319,2.86208 6.49877,1.81177 0.81399,-0.43325 3.74171,-2.99337 5.21214,-4.5557 2.61264,-2.77018 3.00651,-4.60822 1.50982,-6.98454 -0.53828,-0.85337 -2.99337,-3.29533 -5.31718,-5.304042 -0.91901,-0.80086 -1.733,-1.60172 -1.8249,-1.81178 -0.21007,-0.51203 -0.0788,-0.89276 0.91901,-2.59951 1.47043,-2.54699 2.33694,-4.39816 3.08528,-6.66945 0.21006,-0.59079 0.51202,-1.26036 0.6827,-1.4573 0.73521,-0.87963 2.02184,-1.0503 5.63227,-0.73521 4.03055,0.34135 5.61914,0.10503 6.84012,-1.01092 1.12908,-1.03718 1.52294,-2.86209 1.52294,-7.12896 -0.0131,-2.94085 -0.19693,-4.31938 -0.76147,-5.56662 -0.1838,-0.43325 -0.4989,-0.91902 -0.6827,-1.10282 -0.53828,-0.52515 -1.75926,-1.01092 -3.01963,-1.23411 -1.14221,-0.19693 -1.47043,-0.19693 -6.65632,0.0263 -2.44196,0.10503 -2.71767,-0.11816 -3.36098,-2.69141 -0.44638,-1.78552 -0.48577,-1.85117 -2.06122,-4.85767 -0.57767,-1.11595 -1.16847,-2.40258 -1.28663,-2.84896 -0.36761,-1.35227 -0.27571,-1.50981 2.19251,-3.76797 2.32381,-2.15313 3.49227,-3.51853 4.10933,-4.80515 0.35448,-0.748346 0.40699,-0.997794 0.40699,-1.982456 0,-1.733006 -0.43325,-2.507607 -3.05902,-5.382821 -3.21656,-3.518526 -4.26687,-4.253741 -6.07864,-4.253741 -0.87964,0 -1.0897,0.05252 -1.96933,0.485767 -1.35227,0.682699 -2.53386,1.746135 -4.76576,4.240612 -1.05031,1.181595 -2.11375,2.297546 -2.33694,2.46822 -0.90588,0.669571 -1.4573,0.577669 -3.43975,-0.617055 -0.82712,-0.485766 -1.733,-0.89276 -2.7308,-1.207852 -0.81398,-0.249448 -2.07435,-0.656442 -2.78331,-0.879632 -1.44417,-0.459509 -2.48135,-1.024048 -2.87521,-1.56233 -0.24945,-0.328221 -0.24945,-0.433252 -0.0919,-3.25595 0.1838,-3.059018 0.11816,-5.002085 -0.18381,-6.131164 -0.61705,-2.323803 -1.81178,-3.505398 -3.92552,-3.912391 -0.91901,-0.170675 -6.89263,-0.367607 -7.57533,-0.249448 z m 6.1049,35.447841 c 4.34565,0.70896 8.15301,3.37411 9.93853,6.94515 0.98466,1.96933 1.33914,3.57104 1.33914,6.10491 0.0131,2.87521 -0.43325,4.6476 -1.74614,6.8795 -1.83803,3.13779 -5.3303,5.43534 -9.53153,6.26246 -1.32601,0.26257 -4.94956,0.23631 -6.34122,-0.0525 -5.10712,-1.05031 -9.01951,-4.26687 -10.39803,-8.57313 -0.56454,-1.78552 -0.69583,-2.84895 -0.61706,-5.17275 0.0525,-1.68049 0.11816,-2.23191 0.40699,-3.19031 1.2735,-4.26687 4.45068,-7.3784 8.94074,-8.73067 2.61264,-0.80086 5.09398,-0.94528 8.00858,-0.47264 z"
       style="fill:#552200;stroke:none;stroke-width:0.0131288" />
    <path
       id="path1520"
       d="m 502.26454,107.7134 c -0.28367,0.0852 -1.38351,0.35817 -2.45715,0.62926 -5.33255,1.30039 -6.84457,2.47012 -6.88613,5.31547 -0.024,1.56765 0.36075,3.14673 1.67704,6.79374 0.79375,2.16951 0.91409,2.96399 0.5783,3.63186 -0.22099,0.42313 -0.56116,0.64387 -2.68109,1.77637 -0.46934,0.25594 -1.83229,1.297 -3.06245,2.35526 -2.60943,2.2452 -3.59742,2.99732 -3.93797,3.0207 -0.13097,0.009 -1.10319,-0.54278 -2.14989,-1.22104 -4.33985,-2.8341 -6.14303,-3.60519 -8.12083,-3.46942 -1.36219,0.0935 -2.55256,0.9648 -3.5937,2.66807 -0.70946,1.16727 -2.58678,4.87558 -3.02207,6.01088 -0.72999,1.82668 -0.55302,3.44633 0.49664,4.74289 0.77742,0.97309 2.32262,2.01192 5.42354,3.66774 1.44773,0.76916 2.6909,1.43394 2.75909,1.46873 0.0822,0.047 -0.011,0.60611 -0.24704,1.38557 -0.81383,2.71413 -1.23434,5.59866 -1.34074,9.22489 -0.0639,2.13626 -0.17421,2.4465 -1.0049,2.8062 -0.28096,0.12457 -1.58499,0.49043 -2.9039,0.831 -3.74897,0.98113 -4.86242,1.43919 -5.79494,2.42438 -1.30027,1.37891 -1.34197,3.26362 -0.19057,7.0009 0.23552,0.7471 0.5739,1.84245 0.76024,2.44817 0.50533,1.61027 1.35351,3.0391 2.21504,3.70374 1.00149,0.78664 1.76337,0.95806 3.5438,0.82268 1.49137,-0.12873 2.46204,-0.3664 6.40439,-1.59768 1.01766,-0.31989 1.86864,-0.5757 1.88264,-0.5635 2.07647,3.41058 4.81877,6.55176 7.45484,8.52901 1.16587,0.88062 1.21607,0.65346 -1.46368,5.32487 -1.7877,3.09682 -2.30608,4.17202 -2.52142,5.25274 -0.15562,0.80027 0.031,1.98499 0.41828,2.64271 0.99445,1.6425 6.15757,4.77541 9.4597,5.71996 1.43655,0.41462 2.67598,0.0663 3.94004,-1.0732 0.70613,-0.64066 1.66367,-2.21977 2.98063,-4.88947 0.98206,-1.98873 2.53939,-4.99077 2.69527,-5.21203 0.0244,-0.028 0.50313,0.0444 1.07623,0.14984 2.52138,0.49807 5.04827,0.69309 8.01921,0.64706 2.6286,-0.0488 2.64259,-0.0366 2.86168,1.23798 0.23758,1.35231 1.90075,7.75221 2.27213,8.75317 0.6751,1.78286 1.45252,2.75595 2.6334,3.28024 0.63809,0.28519 0.81016,0.2997 2.26314,0.1868 1.82063,-0.12497 3.33331,-0.51833 6.38949,-1.62298 2.31089,-0.84293 2.80554,-1.11376 3.51127,-1.95179 0.83903,-1.00509 1.03305,-1.82115 0.89279,-3.86444 -0.11736,-1.51847 -0.18364,-1.90872 -0.73188,-3.56869 -0.33389,-1.02985 -0.98548,-2.85381 -1.43584,-4.04675 -0.45126,-1.20604 -0.85783,-2.33618 -0.90971,-2.51686 -0.10918,-0.43994 0.2735,-0.80836 1.90111,-1.8281 1.60141,-1.01795 4.08923,-2.9258 5.3872,-4.14664 0.56924,-0.52599 1.16198,-1.09306 1.32327,-1.23573 l 0.29726,-0.27044 2.92834,1.82558 c 4.87907,3.02081 5.95606,3.5654 7.71377,3.86585 1.70442,0.29096 3.11553,-0.24023 4.26993,-1.6354 0.66914,-0.79603 3.19339,-5.04882 3.72718,-6.283 1.22577,-2.84769 0.9851,-4.43664 -0.9325,-6.10789 -1.02089,-0.87743 -2.39092,-1.66509 -5.2467,-3.00874 -3.14073,-1.46885 -3.55075,-1.69075 -3.7331,-2.0467 -0.25594,-0.46935 -0.24733,-0.53573 0.1601,-2.07707 0.68144,-2.53397 1.04121,-4.7695 1.20104,-7.42557 0.10488,-1.73112 0.25679,-2.20214 0.82872,-2.68883 0.72104,-0.61537 1.661,-0.91676 4.87874,-1.58507 1.27191,-0.25838 2.56733,-0.55786 2.86319,-0.65713 2.35378,-0.79324 3.44166,-1.81542 3.69423,-3.50404 0.31997,-2.04856 -1.46108,-8.44037 -2.95352,-10.62772 -1.52134,-2.22483 -3.76328,-2.29465 -9.50571,-0.2555 -3.64881,1.29008 -3.98165,1.23397 -5.29251,-0.99215 -0.98405,-1.6827 -1.44455,-2.25644 -3.08439,-3.90728 -1.63805,-1.62464 -2.37438,-2.57423 -2.67989,-3.38232 -0.3091,-0.86049 -0.2648,-0.98197 1.27341,-3.49579 2.43925,-3.95744 3.11916,-5.93859 2.63964,-7.74804 -0.41184,-1.59037 -1.45393,-2.58478 -4.78958,-4.59296 -3.33477,-1.99508 -4.62134,-2.52526 -6.03592,-2.42816 -2.16118,0.14835 -3.54056,1.71692 -6.02806,6.88837 -1.48645,3.07613 -1.74173,3.38317 -2.76338,3.4533 -0.32745,0.0225 -1.31198,-0.13366 -2.20932,-0.36157 -1.44606,-0.36133 -1.89679,-0.40935 -4.12294,-0.44078 -3.12221,-0.0489 -4.17224,-0.20051 -4.80031,-0.72327 -0.45921,-0.36326 -0.4759,-0.41476 -0.9711,-2.64424 -1.02145,-4.72002 -1.74804,-6.48619 -3.18204,-7.82216 -0.9423,-0.88282 -1.83285,-1.20332 -3.25103,-1.15861 -0.6305,0.0169 -1.37439,0.10747 -1.65804,0.1928 z m 13.14147,34.05016 c 2.90353,0.31391 5.47166,1.49308 7.55492,3.46879 2.45077,2.34528 3.94863,5.9535 4.01971,9.67283 0.0234,1.68284 -0.20965,3.08061 -0.75615,4.51305 -1.66029,4.37771 -5.97822,7.80613 -11.14267,8.87126 -1.64816,0.33685 -4.76048,0.43206 -6.08147,0.16742 -4.17429,-0.80571 -7.14861,-2.91765 -9.0751,-6.44382 -1.44263,-2.61188 -2.07461,-6.45061 -1.52723,-9.21225 0.50847,-2.56157 2.05168,-5.19417 4.07427,-6.97797 3.53783,-3.09851 8.22638,-4.57841 12.93372,-4.05931 z"
       style="fill:#552200;stroke:none;stroke-width:0.0131288" />
    <path
       style="fill:#552200;stroke:none;stroke-width:0.0131288"
       d="m 611.15638,-15.552593 c -0.23085,0.18558 -1.14751,0.851821 -2.04058,1.506505 -4.45305,3.208979 -5.41467,4.861176 -4.38395,7.5135958 0.56687,1.4617686 1.51682,2.7805283 4.10712,5.66559238 1.55085,1.7122142 1.96092,2.40324492 1.90072,3.14835402 -0.0458,0.4751593 -0.27806,0.807552 -1.81704,2.6536862 -0.33877,0.4135476 -1.2106,1.8904828 -1.95292,3.3334584 -1.57446,3.0612312 -2.2074,4.1295042 -2.5142,4.2791422 -0.11799,0.05755 -1.2263,-0.08844 -2.45116,-0.323644 -5.08679,-0.995526 -7.04757,-1.032483 -8.8294,-0.16344 -1.22721,0.598547 -2.0029,1.853305 -2.32767,3.822981 -0.21882,1.348326 -0.56501,5.490313 -0.54177,6.705976 0.01,1.967116 0.7826,3.401553 2.24256,4.208636 1.08612,0.609628 2.90844,0.991653 6.40432,1.360827 1.63066,0.168748 3.03252,0.317635 3.10879,0.32425 0.0938,0.01264 0.21755,0.565824 0.2917,1.376859 0.26578,2.821019 0.96003,5.652156 2.22412,9.052587 0.74356,2.003704 0.75792,2.332659 0.12329,2.978158 -0.21356,0.221014 -1.28452,1.050096 -2.37879,1.861338 -3.10549,2.318034 -3.9652,3.16094 -4.45915,4.42435 -0.6868,1.766465 -0.0172,3.52871 2.45424,6.559392 0.49901,0.60383 1.2242,1.491738 1.62451,1.98304 1.07341,1.302355 2.39636,2.307724 3.44451,2.599899 1.2237,0.352639 1.99415,0.22519 3.59321,-0.569331 1.33368,-0.679732 2.1439,-1.264742 5.33461,-3.887266 0.82284,-0.678865 1.51534,-1.235716 1.5329,-1.229671 3.20592,2.380301 6.92763,4.26073 10.11353,5.102454 1.41134,0.377965 1.3725,0.148588 0.64456,5.484635 -0.49292,3.541633 -0.56928,4.732827 -0.36271,5.81526 0.15658,0.800084 0.77465,1.827857 1.38072,2.29183 1.5388,1.148417 7.5008,2.111473 10.91585,1.745896 1.48707,-0.155607 2.50477,-0.944119 3.24796,-2.475159 0.41362,-0.859058 0.70758,-2.682256 0.92477,-5.651182 0.16275,-2.212008 0.4778,-5.579247 0.53912,-5.842865 0.0121,-0.03517 0.48296,-0.147871 1.05365,-0.265576 2.52375,-0.485936 4.93872,-1.254781 7.67461,-2.413873 2.41758,-1.033051 2.43514,-1.027006 3.11715,0.07186 0.72835,1.163907 4.67461,6.469736 5.39493,7.257777 1.29559,1.398487 2.3817,2.008119 3.67306,2.05022 0.6985,0.0245 0.86339,-0.02671 2.16745,-0.677343 1.64024,-0.799984 2.89422,-1.732954 5.3113,-3.905113 1.82475,-1.649555 2.18136,-2.086414 2.52045,-3.128227 0.39984,-1.246717 0.27297,-2.075879 -0.6248,-3.916709 -0.67939,-1.363069 -0.88744,-1.699808 -2.01931,-3.032093 -0.69641,-0.8289 -1.98567,-2.274314 -2.85131,-3.210578 -0.8714,-0.948064 -1.67287,-1.842589 -1.78884,-1.990535 -0.2665,-0.36666 -0.0502,-0.851898 1.0748,-2.408528 1.10151,-1.545127 2.69004,-4.248036 3.43409,-5.867147 0.32987,-0.701352 0.66606,-1.449605 0.76192,-1.642429 l 0.17384,-0.362328 3.39974,0.591351 c 5.65665,0.965914 6.85934,1.065864 8.60114,0.683771 1.68884,-0.370864 2.7969,-1.393389 3.34242,-3.120114 0.32095,-0.989141 1.06205,-5.878812 1.09293,-7.223118 0.0658,-3.099601 -0.75434,-4.481655 -3.15943,-5.309805 -1.27578,-0.429483 -2.8414,-0.644567 -5.9928,-0.816573 -3.4625,-0.180953 -3.92585,-0.232503 -4.22861,-0.493843 -0.41354,-0.338771 -0.43052,-0.403523 -0.63217,-1.985 -0.32076,-2.604312 -0.82742,-4.811189 -1.67741,-7.33265 -0.55333,-1.643661 -0.58957,-2.1372412 -0.24247,-2.8031822 0.43695,-0.841216 1.19476,-1.47375 3.92551,-3.3022574 1.0816,-0.7174117 2.16953,-1.4817403 2.4064,-1.6849169 1.88318,-1.6196176 2.5072,-2.97568892 2.1067,-4.63545492 -0.47332,-2.01865388 -4.52577,-7.27268608 -6.73081,-8.73887678 -2.24589,-1.4900748 -4.34976,-0.7122828 -8.90501,3.3353401 -2.89657,2.5666965 -3.22611,2.6397804 -5.27744,1.0694197 -1.54426,-1.1895742 -2.1866,-1.5482073 -4.32663,-2.4618224 -2.12851,-0.890001 -3.16771,-1.4932938 -3.7545,-2.127355 -0.60979,-0.6812622 -0.6144,-0.8104812 -0.13359,-3.7180942 0.77331,-4.584019 0.65889,-6.675468 -0.46544,-8.172097 -0.97929,-1.319042 -2.31869,-1.848965 -6.16451,-2.456462 -3.84007,-0.595694 -5.23158,-0.603546 -6.50599,0.01802 -1.94703,0.94962 -2.63587,2.921572 -2.99769,8.64876 -0.22152,3.409261 -0.34272,3.789723 -1.26313,4.238633 -0.29501,0.143879 -1.26605,0.369167 -2.18327,0.49517 -1.47586,0.208565 -1.9116,0.333438 -3.98639,1.1408743 -2.91173,1.1279887 -3.94178,1.3820524 -4.72026,1.1336336 -0.56207,-0.1640762 -0.59689,-0.2055255 -1.89359,-2.0855139 -2.72032,-3.99022 -4.05735,-5.353897 -5.88829,-6.053074 -1.20499,-0.464012 -2.15071,-0.426359 -3.44814,0.148001 -0.57794,0.252614 -1.23327,0.616077 -1.46407,0.801743 z m 24.97387,26.616104 c 2.80869,-0.800198 5.63171,-0.672528 8.30473,0.375512 3.15246,1.252419 5.89647,4.033306 7.36001,7.453319 0.65406,1.550703 0.96337,2.933602 0.9952,4.466422 0.10649,4.680773 -2.6066,9.480523 -6.99227,12.408324 -1.40078,0.931518 -4.24921,2.189312 -5.57282,2.44048 -4.17112,0.821983 -7.72108,-0.01745 -10.83145,-2.561227 -2.31841,-1.878321 -4.34661,-5.198209 -4.87714,-7.963136 -0.49141,-2.564903 -0.0506,-5.584461 1.15342,-7.99758 2.11416,-4.200884 5.90294,-7.33421 10.46032,-8.622114 z"
       id="path2114" />
    <path
       id="path2116"
       d="m 617.03454,67.387077 c -0.2814,0.09244 -1.37391,0.39338 -2.44028,0.691801 -5.2976,1.436139 -6.77926,2.644102 -6.74815,5.489582 0.0161,1.567755 0.44099,3.136494 1.84998,6.748701 0.84889,2.148528 0.98948,2.93968 0.67086,3.615911 -0.21012,0.428633 -0.54453,0.657991 -2.63485,1.844254 -0.46266,0.267834 -1.79857,1.343361 -3.00131,2.43269 -2.55125,2.311104 -3.51971,3.088214 -3.85955,3.12028 -0.1307,0.01233 -1.11669,-0.514437 -2.18037,-1.165739 -4.41081,-2.722361 -6.23309,-3.447147 -8.20678,-3.260922 -1.35936,0.128261 -2.52709,1.029669 -3.52439,2.758969 -0.67942,1.185012 -2.46144,4.940053 -2.8676,6.086095 -0.6831,1.84472 -0.46482,3.45933 0.6176,4.728661 0.80202,0.95293 2.37324,1.95196 5.51543,3.52805 1.4669,0.73194 2.72664,1.36476 2.7957,1.3978 0.0834,0.0449 0.004,0.60619 -0.21158,1.39142 -0.74426,2.73403 -1.09097,5.62835 -1.10473,9.25612 -0.009,2.13719 -0.11169,2.45015 -0.93292,2.83095 -0.27768,0.1317 -1.57194,0.53074 -2.88173,0.90488 -3.72269,1.07655 -4.82409,1.56289 -5.73113,2.57158 -1.26464,1.41165 -1.25821,3.29681 -0.0117,7.00348 0.25452,0.74083 0.62076,1.82718 0.82251,2.42795 0.54628,1.59684 1.43068,3.00355 2.3089,3.64597 1.02125,0.76081 1.78726,0.91272 3.56365,0.73192 1.48759,-0.16678 2.45188,-0.42915 6.3615,-1.7607 1.00915,-0.34578 1.85333,-0.62324 1.86764,-0.6114 2.16289,3.35645 4.9845,6.42657 7.67021,8.33586 1.18797,0.85057 1.23235,0.6222 -1.32723,5.36052 -1.70804,3.14146 -2.1988,4.22954 -2.38646,5.31541 -0.13514,0.80398 0.0817,1.98355 0.48563,2.63116 1.03606,1.61658 6.2775,4.61662 9.60267,5.47654 1.44667,0.37779 2.6768,-0.002 3.91136,-1.17347 0.68953,-0.65848 1.60644,-2.26152 2.85479,-4.96399 0.93096,-2.01315 2.41112,-5.05399 2.5613,-5.27915 0.0237,-0.0287 0.5041,0.0316 1.07971,0.1223 2.53327,0.43352 5.06431,0.56395 8.03311,0.44208 2.6265,-0.11595 2.6408,-0.10411 2.89236,1.1645 0.27204,1.34579 2.0981,7.70113 2.49492,8.69229 0.7204,1.76503 1.52242,2.71796 2.71631,3.21192 0.64516,0.2688 0.81754,0.27892 2.26716,0.12895 1.81684,-0.17143 3.31899,-0.60328 6.34597,-1.78561 2.28861,-0.90168 2.77618,-1.18505 3.46028,-2.04083 0.81309,-1.02618 0.98621,-1.84693 0.79382,-3.88598 -0.1561,-1.51497 -0.23233,-1.9034 -0.82278,-3.54883 -0.36008,-1.02099 -1.05803,-2.82772 -1.53871,-4.00876 -0.48191,-1.19413 -0.91721,-2.31352 -0.97368,-2.49281 -0.12038,-0.43701 0.25277,-0.81508 1.85381,-1.87606 1.57489,-1.05851 4.01318,-3.02927 5.27954,-4.28285 0.55563,-0.54035 1.1337,-1.12238 1.29129,-1.26912 l 0.29026,-0.27795 2.974,1.75022 c 4.95462,2.89523 6.04517,3.41213 7.80998,3.6676 1.71129,0.24734 3.10837,-0.3197 4.22677,-1.7439 0.64859,-0.81286 3.06342,-5.12872 3.56553,-6.37613 1.15265,-2.87806 0.87148,-4.46035 -1.08818,-6.08209 -1.04295,-0.85107 -2.43266,-1.60349 -5.32182,-2.87377 -3.17721,-1.38818 -3.59276,-1.59953 -3.78415,-1.95071 -0.26783,-0.46266 -0.26093,-0.52924 0.10701,-2.08048 0.61651,-2.55054 0.91908,-4.79453 1.01103,-7.45381 0.0606,-1.73324 0.20047,-2.20799 0.75979,-2.70913 0.70508,-0.63357 1.63705,-0.95887 4.83667,-1.70913 1.2649,-0.29078 2.55225,-0.62324 2.84547,-0.73004 2.33276,-0.85308 3.39419,-1.90271 3.60355,-3.59723 0.26755,-2.05606 -1.67614,-8.400301 -3.22395,-10.548821 -1.57765,-2.185268 -3.82065,-2.197814 -9.50913,-0.0127 -3.61467,1.38284 -3.94884,1.33525 -5.31612,-0.856675 -1.0267,-1.657022 -1.5017,-2.218808 -3.18316,-3.827239 -1.67901,-1.582276 -2.43935,-2.512757 -2.76539,-3.312787 -0.33097,-0.852309 -0.28979,-0.974879 1.18372,-3.527162 2.3374,-4.018436 2.9665,-6.016305 2.44093,-7.812919 -0.45232,-1.579335 -1.51946,-2.546809 -4.90531,-4.469154 -3.38463,-1.909272 -4.68432,-2.406432 -6.09596,-2.273239 -2.15668,0.203491 -3.49555,1.80677 -5.85019,7.040057 -1.40741,3.113093 -1.65476,3.426545 -2.67429,3.522741 -0.32677,0.03083 -1.31497,-0.10011 -2.21784,-0.305033 -1.45481,-0.324283 -1.90662,-0.360784 -4.13284,-0.335347 -3.12244,0.03087 -4.176,-0.09391 -4.81722,-0.600453 -0.46833,-0.35142 -0.48634,-0.402474 -1.0383,-2.618584 -1.14166,-4.692396 -1.91311,-6.439433 -3.38075,-7.738351 -0.96454,-0.858471 -1.86298,-1.15612 -3.27956,-1.075215 -0.62986,0.03301 -1.3712,0.142537 -1.65258,0.235078 z m 14.0067,33.703473 c 2.91059,0.23967 5.508,1.35287 7.64103,3.27474 2.50987,2.28193 4.09938,5.85073 4.26541,9.56702 0.0664,1.68169 -0.13091,3.08496 -0.64066,4.53089 -1.54796,4.41869 -5.77693,7.95624 -10.9125,9.15291 -1.63902,0.37883 -4.74789,0.55348 -6.0752,0.32266 -4.19351,-0.69885 -7.22079,-2.73415 -9.2367,-6.20997 -1.50885,-2.57419 -2.23865,-6.39553 -1.76197,-9.17025 0.44289,-2.57372 1.91837,-5.24486 3.89474,-7.07973 3.45756,-3.18785 8.10679,-4.78699 12.82585,-4.38827 z"
       style="fill:#552200;stroke:none;stroke-width:0.0131288" />
  </g>
</svg>
