<?xml version="1.0" encoding="UTF-8" standalone="no"?>
<svg
   xmlns:dc="http://purl.org/dc/elements/1.1/"
   xmlns:cc="http://creativecommons.org/ns#"
   xmlns:rdf="http://www.w3.org/1999/02/22-rdf-syntax-ns#"
   xmlns:svg="http://www.w3.org/2000/svg"
   xmlns="http://www.w3.org/2000/svg"
   xmlns:sodipodi="http://sodipodi.sourceforge.net/DTD/sodipodi-0.dtd"
   xmlns:inkscape="http://www.inkscape.org/namespaces/inkscape"
   width="355.81378"
   height="355.82217"
   viewBox="0 0 94.142392 94.144619"
   version="1.1"
   id="svg8"
   sodipodi:docname="RustDublinLogo.svg"
   inkscape:version="1.0.1 (3bc2e813f5, 2020-09-07)">
  <defs
     id="defs2">
    <inkscape:path-effect
       effect="spiro"
       id="path-effect1743"
       is_visible="true"
       lpeversion="1" />
    <inkscape:path-effect
       effect="spiro"
       id="path-effect1529"
       is_visible="true"
       lpeversion="1" />
  </defs>
  <sodipodi:namedview
     fit-margin-bottom="10"
     fit-margin-right="10"
     fit-margin-left="10"
     fit-margin-top="10"
     lock-margins="true"
     id="base"
     pagecolor="#ffffff"
     bordercolor="#666666"
     borderopacity="1.0"
     inkscape:pageopacity="0.0"
     inkscape:pageshadow="2"
     inkscape:zoom="1.979899"
     inkscape:cx="178.24048"
     inkscape:cy="203.68047"
     inkscape:document-units="px"
     inkscape:current-layer="layer2"
     inkscape:document-rotation="0"
     showgrid="false"
     inkscape:window-width="2560"
     inkscape:window-height="1371"
     inkscape:window-x="0"
     inkscape:window-y="0"
     inkscape:window-maximized="1"
     inkscape:object-nodes="false"
     inkscape:snap-others="false"
     inkscape:snap-nodes="false"
     inkscape:snap-global="false"
     units="px" />
  <metadata
     id="metadata5">
    <rdf:RDF>
      <cc:Work
         rdf:about="">
        <dc:format>image/svg+xml</dc:format>
        <dc:type
           rdf:resource="http://purl.org/dc/dcmitype/StillImage" />
        <dc:title />
      </cc:Work>
    </rdf:RDF>
  </metadata>
  <g
     transform="translate(-24.289767,-13.998777)"
     inkscape:groupmode="layer"
     id="layer2"
     inkscape:label="Layer 2"
     style="display:inline">
    <g
       id="g2359">
      <path
         id="path1967"
         style="color:#000000;font-style:normal;font-variant:normal;font-weight:normal;font-stretch:normal;font-size:medium;line-height:normal;font-family:sans-serif;font-variant-ligatures:normal;font-variant-position:normal;font-variant-caps:normal;font-variant-numeric:normal;font-variant-alternates:normal;font-variant-east-asian:normal;font-feature-settings:normal;font-variation-settings:normal;text-indent:0;text-align:start;text-decoration:none;text-decoration-line:none;text-decoration-style:solid;text-decoration-color:#000000;letter-spacing:normal;word-spacing:normal;text-transform:none;writing-mode:lr-tb;direction:ltr;text-orientation:mixed;dominant-baseline:auto;baseline-shift:baseline;text-anchor:start;white-space:normal;shape-padding:0;shape-margin:0;inline-size:0;clip-rule:nonzero;display:inline;overflow:visible;visibility:visible;isolation:auto;mix-blend-mode:normal;color-interpolation:sRGB;color-interpolation-filters:linearRGB;solid-color:#000000;solid-opacity:1;vector-effect:none;fill:#2b1100;fill-opacity:1;fill-rule:evenodd;stroke:none;stroke-width:9.66032;stroke-linecap:round;stroke-linejoin:round;stroke-miterlimit:4;stroke-dasharray:none;stroke-dashoffset:0;stroke-opacity:1;color-rendering:auto;image-rendering:auto;shape-rendering:auto;text-rendering:auto;enable-background:accumulate;stop-color:#000000"
         d="M 188.50195 10 A 4.8306437 4.8306437 0 0 0 188.28125 10.003906 A 4.8306437 4.8306437 0 0 0 184.51758 12.033203 L 172.88281 28.355469 L 160.17188 12.859375 A 4.8306437 4.8306437 0 0 0 152.0293 13.9375 L 143.80664 32.201172 L 128.3125 19.466797 A 4.8306437 4.8306437 0 0 0 120.53906 22.117188 L 116.03516 41.679688 L 98.341797 32.185547 A 4.8306437 4.8306437 0 0 0 91.232422 36.304688 L 90.642578 56.361328 L 71.441406 50.5 A 4.8306437 4.8306437 0 0 0 65.269531 55.925781 L 68.607422 75.716797 L 48.646484 73.716797 A 4.8306437 4.8306437 0 0 0 43.648438 80.242188 L 50.779297 99.005859 L 30.796875 100.95508 A 4.8306437 4.8306437 0 0 0 27.171875 108.32227 L 37.802734 125.33008 L 18.630859 131.13281 A 4.8306437 4.8306437 0 0 0 16.513672 139.06055 L 30.25 153.66992 L 12.556641 163.10352 A 4.8306437 4.8306437 0 0 0 12.025391 171.29688 L 28.345703 182.93164 L 12.851562 195.64258 A 4.8306437 4.8306437 0 0 0 13.9375 203.78516 L 32.191406 212.00781 L 19.458984 227.50391 A 4.8306437 4.8306437 0 0 0 22.109375 235.27539 L 41.669922 239.78711 L 32.185547 257.47266 A 4.8306437 4.8306437 0 0 0 36.296875 264.58984 L 56.353516 265.17383 L 50.5 284.37305 A 4.8306437 4.8306437 0 0 0 55.917969 290.54492 L 75.708984 287.20703 L 73.707031 307.17578 A 4.8306437 4.8306437 0 0 0 80.234375 312.17383 L 98.998047 305.04297 L 100.94727 325.01758 A 4.8306437 4.8306437 0 0 0 108.31445 328.65039 L 125.33008 318.01172 L 131.125 337.18359 A 4.8306437 4.8306437 0 0 0 139.06055 339.30273 L 153.66016 325.57227 L 163.0957 343.26562 A 4.8306437 4.8306437 0 0 0 171.28906 343.79688 L 182.92383 327.46094 L 195.64258 342.96289 A 4.8306437 4.8306437 0 0 0 203.77734 341.88477 L 212 323.62305 L 227.49414 336.35742 A 4.8306437 4.8306437 0 0 0 235.26758 333.70703 L 239.77734 314.15234 L 257.47266 323.63672 A 4.8306437 4.8306437 0 0 0 264.58203 319.51758 L 265.16406 299.46875 L 284.36523 305.32227 A 4.8306437 4.8306437 0 0 0 290.53516 299.89648 L 287.20703 280.10742 L 307.16797 282.10742 A 4.8306437 4.8306437 0 0 0 312.16406 275.58789 L 305.0332 256.81641 L 325.01758 254.86719 A 4.8306437 4.8306437 0 0 0 328.64062 247.5 L 318.00391 230.49219 L 337.17578 224.69141 A 4.8306437 4.8306437 0 0 0 339.30078 216.76172 L 325.57031 202.1543 L 343.25781 192.71875 A 4.8306437 4.8306437 0 0 0 343.78906 184.52539 L 327.46094 172.89258 L 342.95508 160.17969 A 4.8306437 4.8306437 0 0 0 341.87695 152.03711 L 323.61523 143.81445 L 336.34766 128.32031 A 4.8306437 4.8306437 0 0 0 333.69727 120.54688 L 314.13672 116.04492 L 323.62891 98.349609 A 4.8306437 4.8306437 0 0 0 319.50977 91.240234 L 299.46094 90.650391 L 305.31445 71.449219 A 4.8306437 4.8306437 0 0 0 299.88867 65.279297 L 280.09766 68.615234 L 282.09766 48.646484 A 4.8306437 4.8306437 0 0 0 275.58008 43.650391 L 256.80859 50.78125 L 254.85938 30.804688 A 4.8306437 4.8306437 0 0 0 247.49219 27.173828 L 230.48438 37.810547 L 224.68164 18.640625 A 4.8306437 4.8306437 0 0 0 216.75391 16.521484 L 202.15234 30.251953 L 192.71875 12.556641 A 4.8306437 4.8306437 0 0 0 188.50195 10 z M 185.56836 39.265625 C 186.00085 39.27181 186.43588 39.288132 186.87305 39.316406 C 190.36831 39.542498 193.59428 40.524505 197.00781 41 A 4.8306437 4.8306437 0 0 0 203.55469 42.091797 C 210.3484 43.370188 216.91839 45.036345 223.30273 47.251953 A 4.8306437 4.8306437 0 0 0 229.62891 49.673828 C 235.98514 52.236662 242.06596 55.149478 247.89844 58.576172 A 4.8306437 4.8306437 0 0 0 253.73047 62.244141 C 259.42505 65.983469 264.77959 70.045796 269.83789 74.550781 A 4.8306437 4.8306437 0 0 0 274.8418 79.251953 C 279.6907 84.019415 284.12948 89.073333 288.23242 94.496094 A 4.8306437 4.8306437 0 0 0 292.25586 100.07031 C 296.06963 105.66457 299.40367 111.49692 302.37695 117.62305 A 4.8306437 4.8306437 0 0 0 305.26367 123.86914 C 307.91123 130.09494 310.01313 136.50072 311.73633 143.13477 A 4.8306437 4.8306437 0 0 0 313.32422 149.72852 C 314.69872 156.34382 315.49989 163.06832 315.89258 169.96875 A 4.8306437 4.8306437 0 0 0 316.12891 176.60547 C 316.15914 180.05233 316.72399 183.37725 316.49805 186.87305 C 316.27203 190.3703 315.28447 193.6002 314.80859 197.01562 A 4.8306437 4.8306437 0 0 0 313.72266 203.56445 C 312.44457 210.35562 310.77711 216.92063 308.5625 223.30273 A 4.8306437 4.8306437 0 0 0 306.14062 229.63672 C 303.57742 235.99332 300.66544 242.07351 297.23828 247.90625 A 4.8306437 4.8306437 0 0 0 293.57031 253.73828 C 289.83202 259.43086 285.77493 264.78901 281.27148 269.8457 A 4.8306437 4.8306437 0 0 0 276.5625 274.85742 C 271.79596 279.70487 266.73985 284.14033 261.31836 288.24219 A 4.8306437 4.8306437 0 0 0 255.75195 292.26367 C 250.15499 296.07945 244.32075 299.41035 238.19141 302.38477 A 4.8306437 4.8306437 0 0 0 231.93945 305.27148 C 225.71559 307.91737 219.31145 310.02388 212.67969 311.74609 A 4.8306437 4.8306437 0 0 0 206.08789 313.33203 C 199.4736 314.70591 192.745 315.50796 185.8457 315.90039 A 4.8306437 4.8306437 0 0 0 179.20898 316.13672 C 175.76302 316.16695 172.43629 316.73176 168.94141 316.50586 C 165.44614 316.27984 162.22017 315.29971 158.80664 314.82422 A 4.8306437 4.8306437 0 0 0 152.25781 313.73047 C 145.46411 312.45207 138.89606 310.78592 132.51172 308.57031 A 4.8306437 4.8306437 0 0 0 126.18555 306.15039 C 119.82736 303.58676 113.7423 300.67605 107.9082 297.24805 A 4.8306437 4.8306437 0 0 0 102.08398 293.57812 C 96.389408 289.8388 91.034852 285.77842 85.976562 281.27344 A 4.8306437 4.8306437 0 0 0 80.970703 276.57031 C 76.121267 271.80232 71.683402 266.74961 67.580078 261.32617 A 4.8306437 4.8306437 0 0 0 63.564453 255.76172 A 4.8306437 4.8306437 0 0 0 63.556641 255.76172 C 59.741204 250.16499 56.404013 244.32829 53.429688 238.19922 A 4.8306437 4.8306437 0 0 0 50.550781 231.95508 C 47.903649 225.72994 45.799202 219.32079 44.076172 212.6875 A 4.8306437 4.8306437 0 0 0 42.490234 206.0957 C 41.115749 199.48035 40.306774 192.75595 39.914062 185.85547 A 4.8306437 4.8306437 0 0 0 39.677734 179.21875 C 39.645986 175.77192 39.082506 172.44498 39.308594 168.94922 C 39.53461 165.45486 40.516878 162.22712 40.992188 158.81445 A 4.8306437 4.8306437 0 0 0 42.083984 152.25977 C 43.361986 145.4689 45.029685 138.90137 47.244141 132.51953 A 4.8306437 4.8306437 0 0 0 49.664062 126.1875 C 52.227383 119.83038 55.146803 113.7492 58.574219 107.91602 A 4.8306437 4.8306437 0 0 0 62.236328 102.0918 C 65.974848 96.397961 70.031191 91.042146 74.535156 85.984375 A 4.8306437 4.8306437 0 0 0 79.244141 80.972656 C 84.010938 76.124664 89.066413 71.692132 94.488281 67.589844 A 4.8306437 4.8306437 0 0 0 100.06055 63.566406 C 105.65748 59.750777 111.49375 56.411788 117.62305 53.4375 A 4.8306437 4.8306437 0 0 0 123.86719 50.558594 C 130.09376 47.91108 136.4999 45.801113 143.13477 44.078125 A 4.8306437 4.8306437 0 0 0 149.71875 42.498047 C 156.33551 41.123266 163.06479 40.314455 169.9668 39.921875 A 4.8306437 4.8306437 0 0 0 176.5957 39.685547 C 179.61303 39.657437 182.5409 39.222328 185.56836 39.265625 z "
         transform="matrix(0.26458333,0,0,0.26458333,24.289767,13.998777)" />
      <path
         d="M 72.922681,20.824689 C 54.955731,20.132812 38.065394,31.645244 32.74091,49.649601 26.446816,70.932648 38.656542,93.3968 59.939604,99.690899 81.222674,105.985 103.68681,93.775251 109.9809,72.492205 c 6.29411,-21.283078 -5.91563,-43.74668 -27.198706,-50.040782 -2.99407,-0.88545 -6.011656,-1.404933 -9.003615,-1.584591 -0.285684,-0.0172 -0.570714,-0.03118 -0.855898,-0.04215 z m 8.151827,4.916096 5.29e-4,1.6e-5 0.0036,6.42e-4 c 0.214571,0.01578 0.426507,0.05772 0.631015,0.124588 1.36277,0.441466 2.124427,1.892257 1.716579,3.27028 -0.414939,1.403435 -1.889285,2.204761 -3.29272,1.789814 -1.403434,-0.414954 -2.204774,-1.889285 -1.789814,-3.292722 0.35253,-1.194134 1.488924,-1.981671 2.730823,-1.892604 z m -8.454413,2.46521 c 0.308542,0.01092 0.617371,0.02662 0.925566,0.04638 0.03215,0.0021 0.06392,0.0041 0.09597,0.0061 0.36307,0.02459 0.726011,0.05503 1.088044,0.09176 l 2.700105,5.258822 c 0.609344,1.184168 2.059955,1.657482 3.246547,1.039922 l 5.613395,-2.879851 c 8.527941,4.360959 14.707478,12.25142 16.897288,21.576036 l -4.99888,5.87749 c -0.86021,1.01609 -0.735249,2.545439 0.270233,3.411398 l 5.011627,4.263627 c -0.3543,1.855998 -0.86918,3.677547 -1.53899,5.444357 L 98.720432,71.39216 c -0.318633,-0.09424 -0.512282,0.0797 -0.604122,0.39016 l -0.435081,1.470809 c -1.024445,3.464102 -3.201976,3.64629 -4.973278,3.326824 -1.689617,-0.295178 -3.236059,-1.703042 -3.170042,-2.767473 0.637837,-5.701847 -0.62332,-7.328196 -2.564078,-10.078843 3.735035,-1.063297 7.876088,-3.045768 9.040681,-6.983768 1.258807,-4.256583 -0.865779,-7.79833 -2.4621,-9.700839 -2.250546,-2.664594 -5.230013,-3.946498 -6.063361,-4.19295 l -9.418448,-2.907631 c -0.211195,-0.06521 -0.417768,-0.401771 -0.448577,-0.620934 -0.291549,-2.074202 -1.340094,-4.034844 -2.970784,-5.349446 -1.519126,-1.224672 -3.4703,-1.893143 -5.421597,-1.888292 -1.521504,0.0038 -3.031195,0.405647 -4.390756,1.088698 -0.92913,0.4668 -1.788758,1.061141 -2.701331,1.559531 -0.91257,0.49839 -1.902658,0.905911 -2.941442,0.951807 -0.846061,0.03738 -1.676825,-0.168015 -2.471524,-0.475524 l -0.0077,-0.03436 -0.0531,0.01179 c -0.286342,-0.112929 -0.567923,-0.238587 -0.843594,-0.371098 -0.948854,-0.456103 -1.855094,-0.999444 -2.711209,-1.612144 5.026488,-3.087968 10.807259,-4.83524 16.761567,-5.066322 l -0.02791,0.08289 c 0.925363,-0.04581 1.851849,-0.05214 2.777476,-0.01904 z m -26.688521,10.923856 6.979849,31.414361 c -0.243746,1.017251 -0.482925,2.011275 -0.731992,3.053976 L 45.58051,43.898725 a 2.7594306,2.7594306 0 0 0 0.646626,-1.689644 2.7594306,2.7594306 0 0 0 -1.037647,-2.243042 c 0.242262,-0.282969 0.490303,-0.561168 0.742085,-0.836188 z m 0.938812,0.766993 c 0.11651,0.108374 0.23146,0.218487 0.350806,0.323709 0.438304,0.386443 0.897644,0.7515 1.374357,1.092307 l 5.446554,24.513621 c -0.239472,0.994767 -0.490299,2.046988 -0.731992,3.053976 z m 2.627233,2.017972 c 0.517826,0.321148 1.053439,0.611457 1.603613,0.869367 l 4.07562,18.343308 c -0.243596,1.007599 -0.492507,2.033464 -0.735173,3.039917 z m 2.453503,1.23756 c 0.497545,0.196021 1.005946,0.3628 1.522049,0.499748 l 2.839321,12.781056 c -0.249122,1.026791 -0.490211,2.027577 -0.735159,3.039401 z m 6.804658,0.723584 c 0.464362,-0.01886 0.571822,0.19983 0.321156,1.193438 -0.03016,0.123767 -0.05532,0.226767 -0.08534,0.349948 l -0.34057,-1.533204 c 0.03474,-0.0033 0.07329,-0.0089 0.104753,-0.01019 z M 54.2827,43.83862 c 0.302925,0.06007 0.607741,0.111755 0.915118,0.149459 0.189266,0.03514 0.370662,0.06108 0.546562,0.0806 l 1.706512,7.681133 c -0.241189,0.991574 -0.502586,2.062515 -0.737435,3.029507 z m 3.624517,0.158282 0.682994,3.07319 c -0.254304,1.043756 -0.492082,2.021499 -0.737436,3.029506 l -1.331056,-5.989669 c 0.543517,0.0018 1.007077,-0.05313 1.385498,-0.113025 z m -12.970254,0.462403 6.843763,30.803151 c -0.229391,0.96196 -0.492099,2.076154 -0.728341,3.0696 L 43.619508,44.877939 a 2.7594306,2.7594306 0 0 0 1.317455,-0.418632 z m -2.967059,-0.01943 a 2.7594306,2.7594306 0 0 0 0.8659,0.368692 l 7.819687,35.196087 c -0.469868,1.978842 -0.915162,3.846181 -1.422712,5.994459 -1.1666,-0.929205 -1.645121,-1.434113 -2.664565,-2.496338 a 2.7594306,2.7594306 0 0 0 0.701336,-1.753082 2.7594306,2.7594306 0 0 0 -2.672361,-2.844014 2.7594306,2.7594306 0 0 0 -1.473203,0.37294 C 38.985019,73.256962 36.993304,66.089561 37.459476,58.878303 37.78885,53.786735 39.333654,48.844619 41.969904,44.43988 Z m 25.69768,3.073981 10.547239,3.119042 c 0.547389,0.161883 3.661835,1.767242 2.929738,4.242789 -0.606474,2.050672 -3.355875,2.036691 -5.43925,1.420567 l -9.788017,-2.894297 z m 36.790236,10.28458 c 0.0234,9.81e-4 0.0468,0.0023 0.0702,0.0038 0.2162,0.01562 0.42971,0.05809 0.63564,0.12577 1.36234,0.446278 2.12285,1.895074 1.71608,3.269745 -0.42632,1.388609 -1.89115,2.17495 -3.28414,1.763195 -1.393,-0.41175 -2.19504,-1.868338 -1.7979,-3.265571 0.34485,-1.168937 1.4426,-1.951497 2.66013,-1.896874 z m -41.033623,4.062369 8.080521,2.389295 c 0.735304,0.217454 3.883119,1.379007 3.691474,5.782381 -0.05349,1.352424 -0.555579,5.664536 -0.462557,7.122472 0.04715,1.613168 1.130437,5.131749 3.213791,5.74787 l 13.186092,3.899641 c -1.233823,0.921985 -2.531216,1.755684 -3.88284,2.494238 l -5.027514,-2.739447 c -1.170293,-0.639249 -2.639716,-0.203116 -3.279012,0.967155 l -3.033981,5.570519 C 69.189154,94.026962 61.582877,92.492456 55.659779,89.438718 l 3.527589,-12.228782 0.08485,-0.01856 7.064946,2.278074 c 0.285917,0.08456 0.496548,0.09357 0.576259,-0.175949 l 2.672378,-9.036461 c 0.07737,-0.261547 -0.101942,-0.376796 -0.387881,-0.461356 l -7.113282,-2.103794 0.0041,-0.01538 -0.277882,0.0079 z m 18.973707,28.318922 5.29e-4,1.7e-5 c 0.240023,0.01078 0.477529,0.05469 0.705831,0.129502 1.36285,0.446312 2.123469,1.895803 1.716047,3.270777 -0.423722,1.39211 -1.890955,2.181941 -3.286396,1.769332 -1.39543,-0.412623 -2.197116,-1.873538 -1.795622,-3.272221 0.344807,-1.168759 1.442278,-1.951786 2.659625,-1.897406 z"
         style="fill:#552200;stroke-width:0.851985"
         id="path1723-8" />
    </g>
  </g>
</svg>
